<svg xmlns="http://www.w3.org/2000/svg" viewBox="0 0 48 48">
  <rect width="48" height="48" rx="8" fill="#07C160"/>
  <path d="M8 12c0-2.2 1.8-4 4-4h24c2.2 0 4 1.8 4 4v16c0 2.2-1.8 4-4 4H20l-6 6v-6c-2.2 0-4-1.8-4-4V12z" fill="#FFF"/>
  <circle cx="16" cy="20" r="2" fill="#07C160"/>
  <circle cx="24" cy="20" r="2" fill="#07C160"/>
  <circle cx="32" cy="20" r="2" fill="#07C160"/>
  <path d="M14 28c0 2.2 1.8 4 4 4s4-1.8 4-4" stroke="#07C160" stroke-width="2" fill="none"/>
  <circle cx="30" cy="32" r="1.5" fill="#07C160"/>
</svg>